<?xml version="1.0" encoding="iso-8859-1"?>
<!-- Uploaded to: SVG Repo, www.svgrepo.com, Generator: SVG Repo Mixer Tools -->
<svg version="1.1" id="Layer_1" xmlns="http://www.w3.org/2000/svg" xmlns:xlink="http://www.w3.org/1999/xlink" 
	 viewBox="0 0 512 512" xml:space="preserve">
<circle style="fill:#273B7A;" cx="256" cy="256" r="256"/>
<path style="fill:#121149;" d="M510.214,225.77L369.778,85.333L142.224,381.631l8.713,14.646l-4.403,6.254L256.002,512
	C397.386,512,512,397.384,512,256C512,245.77,511.381,235.687,510.214,225.77z"/>
<g>
	<rect x="146.532" y="374.949" style="fill:#FF7F4F;" width="10.343" height="27.582"/>
	<rect x="355.125" y="374.949" style="fill:#FF7F4F;" width="10.343" height="27.582"/>
</g>
<g>
	<rect x="142.222" y="85.333" style="fill:#E03A00;" width="227.556" height="296.305"/>
	<rect x="142.222" y="85.333" style="fill:#E03A00;" width="112.623" height="296.288"/>
</g>
<rect x="254.845" y="85.333" style="fill:#940030;" width="114.933" height="296.288"/>
<rect x="261.585" y="100.745" style="fill:#E05328;" width="89.236" height="212.144"/>
<rect x="161.185" y="100.745" style="fill:#FF7F4F;" width="89.236" height="212.144"/>
<circle style="fill:#E03A00;" cx="223.246" cy="233.486" r="9.481"/>
<circle style="fill:#940030;" cx="288.754" cy="233.486" r="9.481"/>
<polygon style="fill:#FF7F4F;" points="254.852,321.508 161.185,321.508 161.185,366.33 254.852,366.33 350.815,366.33 
	350.815,321.508 "/>
<rect x="254.845" y="321.508" style="fill:#E05328;" width="95.963" height="44.822"/>
</svg>